HIERARCHY
ROOT Hips
{
	OFFSET 0.000000 0.000000 0.000000
	CHANNELS 6 Xposition Yposition Zposition Zrotation Yrotation Xrotation 
	JOINT LHipJoint
	{
		OFFSET 0.000000 0.000000 0.000000
		CHANNELS 3 Zrotation Yrotation Xrotation
		JOINT LeftUpLeg
		{
			OFFSET 1.363060 -1.794630 0.839290
			CHANNELS 3 Zrotation Yrotation Xrotation
			JOINT LeftLeg
			{
				OFFSET 2.448110 -6.726130 0.000000
				CHANNELS 3 Zrotation Yrotation Xrotation
				JOINT LeftFoot
				{
					OFFSET 2.562200 -7.039590 0.000000
					CHANNELS 3 Zrotation Yrotation Xrotation
					JOINT LeftToeBase
					{
						OFFSET 0.157640 -0.433110 2.322550
						CHANNELS 3 Zrotation Yrotation Xrotation
						End Site
						{
							OFFSET 0.000000 0.000000 0.000000
						}
					}
				}
			}
		}
	}
	JOINT RHipJoint
	{
		OFFSET 0.000000 0.000000 0.000000
		CHANNELS 3 Zrotation Yrotation Xrotation
		JOINT RightUpLeg
		{
			OFFSET -1.305520 -1.794630 0.839290
			CHANNELS 3 Zrotation Yrotation Xrotation
			JOINT RightLeg
			{
				OFFSET -2.542530 -6.985550 0.000000
				CHANNELS 3 Zrotation Yrotation Xrotation
				JOINT RightFoot
				{
					OFFSET -2.568260 -7.056230 0.000000
					CHANNELS 3 Zrotation Yrotation Xrotation
					JOINT RightToeBase
					{
						OFFSET -0.164730 -0.452590 2.363150
						CHANNELS 3 Zrotation Yrotation Xrotation
						End Site
						{
							OFFSET 0.000000 0.000000 0.000000
						}
					}
				}
			}
		}
	}
	JOINT LowerBack
	{
		OFFSET 0.000000 0.000000 0.000000
		CHANNELS 3 Zrotation Yrotation Xrotation
		JOINT Spine
		{
			OFFSET 0.028270 2.035590 -0.193380
			CHANNELS 3 Zrotation Yrotation Xrotation
			JOINT Spine1
			{
				OFFSET 0.056720 2.048850 -0.042750
				CHANNELS 3 Zrotation Yrotation Xrotation
				JOINT Neck
				{
					OFFSET 0.000000 0.000000 0.000000
					CHANNELS 3 Zrotation Yrotation Xrotation
					JOINT Neck1
					{
						OFFSET -0.054170 1.746240 0.172020
						CHANNELS 3 Zrotation Yrotation Xrotation
						JOINT Head
						{
							OFFSET 0.104070 1.761360 -0.123970
							CHANNELS 3 Zrotation Yrotation Xrotation
							End Site
							{
								OFFSET 0.000000 0.000000 0.000000
							}
						}
					}
				}
				JOINT LeftShoulder
				{
					OFFSET 0.000000 0.000000 0.000000
					CHANNELS 3 Zrotation Yrotation Xrotation
					JOINT LeftArm
					{
						OFFSET 3.362410 1.200890 -0.311210
						CHANNELS 3 Zrotation Yrotation Xrotation
						JOINT LeftForeArm
						{
							OFFSET 4.983000 -0.000000 -0.000000
							CHANNELS 3 Zrotation Yrotation Xrotation
							JOINT LeftHand
							{
								OFFSET 3.483560 -0.000000 -0.000000
								CHANNELS 3 Zrotation Yrotation Xrotation
								JOINT LeftFingerBase
								{
									OFFSET 0.000000 0.000000 0.000000
									CHANNELS 3 Zrotation Yrotation Xrotation
									JOINT LeftHandIndex1
									{
										OFFSET 0.715260 -0.000000 -0.000000
										CHANNELS 3 Zrotation Yrotation Xrotation
										End Site
										{
											OFFSET 0.000000 0.000000 0.000000
										}
									}
								}
								JOINT LThumb
								{
									OFFSET 0.000000 0.000000 0.000000
									CHANNELS 3 Zrotation Yrotation Xrotation
									End Site
									{
										OFFSET 0.000000 0.000000 0.000000
									}
								}
							}
						}
					}
				}
				JOINT RightShoulder
				{
					OFFSET 0.000000 0.000000 0.000000
					CHANNELS 3 Zrotation Yrotation Xrotation
					JOINT RightArm
					{
						OFFSET -3.136600 1.374050 -0.404650
						CHANNELS 3 Zrotation Yrotation Xrotation
						JOINT RightForeArm
						{
							OFFSET -5.241900 -0.000000 -0.000000
							CHANNELS 3 Zrotation Yrotation Xrotation
							JOINT RightHand
							{
								OFFSET -3.444170 -0.000000 -0.000000
								CHANNELS 3 Zrotation Yrotation Xrotation
								JOINT RightFingerBase
								{
									OFFSET 0.000000 0.000000 0.000000
									CHANNELS 3 Zrotation Yrotation Xrotation
									JOINT RightHandIndex1
									{
										OFFSET -0.622530 -0.000000 -0.000000
										CHANNELS 3 Zrotation Yrotation Xrotation
										End Site
										{
											OFFSET 0.000000 0.000000 0.000000
										}
									}
								}
								JOINT RThumb
								{
									OFFSET 0.000000 0.000000 0.000000
									CHANNELS 3 Zrotation Yrotation Xrotation
									End Site
									{
										OFFSET 0.000000 0.000000 0.000000
									}
								}
							}
						}
					}
				}
			}
		}
	}
}
MOTION
Frames: 12
Frame Time: 0.008333
-8.429240 17.032674 -1.373522 -5.416331 83.101973 -0.694748 -9.759326 1.722328 1.921254 -19.184774 7.599893 -29.989762 -2.810028 0.066421 19.561319 1.737618 7.885362 -11.166958 -0.493500 0.000000 -18.373300 10.890436 -3.232691 -2.697362 -5.059036 -23.240313 -0.945824 -0.680906 -2.488152 39.890128 -2.026857 -7.139555 28.688605 -3.401900 -0.000001 -69.463000 0.055387 0.493724 -0.979419 -0.359635 0.480957 -2.642987 -4.409060 0.406072 2.555341 9.561864 -11.239248 -11.127734 -1.420113 -0.062645 -0.926934 0.000000 0.000000 0.000000 -2.643490 21.991310 2.349175 -84.405762 21.592188 -10.014598 -4.259867 -12.101738 -0.022106 -6.158967 8.263964 -0.445143 -0.079404 -0.094323 -0.000000 0.000000 0.000000 0.000000 0.000000 0.000000 0.000000 8.597766 -5.647361 1.222407 47.364325 9.428595 -3.599599 2.823691 36.894427 0.013182 1.267834 4.879359 0.052014 0.099430 -0.149853 0.000000 0.000000 0.000000 0.000000 0.000000 0.000000 0.000000 
-8.180636 16.978835 -1.372343 -4.644242 82.929259 -0.223018 -9.838586 1.738540 1.859412 -18.950750 7.269221 -29.706208 -2.708038 0.269167 21.681740 1.698101 7.682577 -11.453498 -0.549300 0.000000 -15.855400 10.951360 -3.057831 -2.823240 -5.544331 -23.541053 -2.251416 -0.742367 -2.622651 42.720486 -2.130384 -8.020720 27.698278 -3.777101 -0.000000 -65.731100 -0.157447 0.372783 -0.798862 -0.405455 0.380007 -2.611740 -4.465487 0.307761 2.539845 9.755739 -11.385795 -11.158129 -1.439988 -0.063511 -0.936786 0.000000 0.000000 0.000000 -2.599762 21.938718 2.329062 -84.470411 21.379303 -9.470576 -4.269602 -12.604239 -0.022713 -6.717320 8.342865 -0.490947 -0.076521 -0.094384 -0.000000 0.000000 0.000000 0.000000 0.000000 0.000000 0.000000 8.907604 -5.826301 1.203142 47.852731 8.842727 -3.557084 2.866127 36.833334 0.013498 1.482045 4.828616 0.060812 0.099049 -0.145182 0.000000 0.000000 0.000000 0.000000 0.000000 0.000000 0.000000 
-7.934715 16.922619 -1.369515 -3.603700 82.735670 0.590516 -9.905464 1.765649 1.773012 -18.866931 7.100367 -29.590682 -2.620917 0.471119 23.906033 1.680139 7.547150 -11.918439 -0.633500 0.000000 -13.244500 11.000296 -2.892792 -2.905191 -5.879330 -23.659763 -3.757480 -0.794527 -2.772316 45.405593 -2.183175 -8.758595 25.922265 -3.984099 0.000000 -62.539700 -0.393342 0.244181 -0.647326 -0.455780 0.271205 -2.587772 -4.523516 0.201055 2.519217 9.938664 -11.516392 -11.197884 -1.461341 -0.064366 -0.949071 0.000000 0.000000 0.000000 -2.576181 21.896237 2.305945 -84.395392 21.090774 -8.723611 -4.274027 -13.227660 -0.023086 -7.229635 8.345191 -0.529146 -0.073865 -0.093832 -0.000000 0.000000 0.000000 0.000000 0.000000 0.000000 0.000000 9.198146 -5.983397 1.180892 48.467369 8.216950 -3.651370 2.905311 36.721172 0.013640 1.573840 4.799243 0.064314 0.099745 -0.141447 -0.000000 0.000000 0.000000 0.000000 0.000000 0.000000 0.000000 
-7.691756 16.866009 -1.365196 -2.360836 82.527930 1.685842 -9.957414 1.798008 1.672665 -18.905104 7.031956 -29.585733 -2.545338 0.662342 26.130422 1.692648 7.533578 -12.566820 -0.750600 -0.000001 -10.719500 11.039939 -2.736977 -2.941463 -6.048480 -23.577367 -5.455620 -0.838703 -2.932495 47.906092 -2.186667 -9.300648 23.441625 -3.987800 0.000000 -59.884201 -0.644960 0.110271 -0.532434 -0.509529 0.156089 -2.572159 -4.583714 0.087452 2.494580 10.107459 -11.632138 -11.245449 -1.484827 -0.065301 -0.963307 0.000000 0.000000 0.000000 -2.570215 21.858652 2.279313 -84.176009 20.708486 -7.838371 -4.271276 -13.925919 -0.023148 -7.638885 8.266385 -0.554238 -0.071704 -0.092527 -0.000000 0.000000 0.000000 0.000000 0.000000 0.000000 0.000000 9.468610 -6.121219 1.155203 49.212618 7.544109 -3.903178 2.940807 36.547583 0.013622 1.529154 4.798482 0.062322 0.101559 -0.138710 -0.000000 0.000000 0.000000 0.000000 0.000000 0.000000 0.000000 
-7.451815 16.810949 -1.359522 -0.957608 82.312568 3.021956 -9.992354 1.830854 1.567047 -19.041036 7.002695 -29.628734 -2.479595 0.835420 28.264692 1.740804 7.673872 -13.395060 -0.907300 -0.000001 -8.433001 11.072586 -2.587451 -2.931795 -6.055225 -23.280676 -7.321284 -0.870918 -3.096123 50.181907 -2.145121 -9.620380 20.361914 -3.786600 -0.000000 -57.634100 -0.908550 -0.027282 -0.457983 -0.566215 0.035951 -2.564667 -4.646395 -0.031720 2.469266 10.262028 -11.741940 -11.301507 -1.510648 -0.066327 -0.979692 0.000000 0.000000 0.000000 -2.573280 21.825305 2.248692 -83.813911 20.213159 -6.876555 -4.260735 -14.651077 -0.022848 -7.898724 8.110735 -0.562622 -0.070291 -0.090381 -0.000000 0.000000 0.000000 0.000000 0.000000 0.000000 0.000000 9.723530 -6.251560 1.125823 50.084474 6.831447 -4.312392 2.972385 36.298686 0.013453 1.338174 4.835363 0.054331 0.104476 -0.136941 -0.000000 0.000000 0.000000 0.000000 0.000000 0.000000 0.000000 
-7.214914 16.759225 -1.352755 0.555483 82.095274 4.542241 -10.009450 1.860271 1.461814 -19.249942 6.964212 -29.657242 -2.423104 0.985176 30.235769 1.825445 7.972845 -14.389825 -1.110500 -0.000000 -6.490000 11.099754 -2.440391 -2.876191 -5.915237 -22.759864 -9.313698 -0.884088 -3.254722 52.191885 -2.067367 -9.725039 16.821668 -3.413500 -0.000000 -55.684401 -1.175759 -0.166173 -0.424462 -0.624619 -0.087387 -2.566505 -4.712763 -0.154663 2.438292 10.397141 -11.828033 -11.357426 -1.540959 -0.067774 -0.995816 0.000000 0.000000 0.000000 -2.581289 21.767070 2.215344 -83.321054 19.620252 -5.918216 -4.242752 -15.385106 -0.022193 -7.983309 7.891934 -0.553297 -0.069782 -0.087398 -0.000000 0.000000 0.000000 0.000000 0.000000 0.000000 0.000000 9.959464 -6.357236 1.094022 51.088965 6.042941 -4.912968 3.000036 35.980307 0.013157 1.019101 4.910197 0.040946 0.108199 -0.136029 -0.000000 0.000000 0.000000 0.000000 0.000000 0.000000 0.000000 
-6.980904 16.712295 -1.345163 2.142800 81.881294 6.198995 -10.008579 1.883831 1.358779 -19.511340 6.885727 -29.610613 -2.376521 1.108238 31.983117 1.942974 8.409460 -15.523604 -1.364500 -0.000000 -4.961600 11.122714 -2.290496 -2.777896 -5.661774 -22.021072 -11.381423 -0.870391 -3.400607 53.902971 -1.965669 -9.642922 12.972949 -2.919901 -0.000000 -53.832300 -1.443470 -0.306120 -0.425538 -0.684021 -0.213444 -2.573873 -4.782073 -0.280606 2.411235 10.519356 -11.921735 -11.420736 -1.574220 -0.069375 -1.013902 0.000000 0.000000 0.000000 -2.580286 21.703576 2.177822 -82.707425 18.902695 -4.999029 -4.218918 -16.082330 -0.021211 -7.879568 7.623073 -0.527166 -0.070320 -0.083585 -0.000000 0.000000 0.000000 0.000000 0.000000 0.000000 0.000000 10.191445 -6.475210 1.059625 52.199420 5.227854 -5.650936 3.024060 35.567304 0.012739 0.565494 5.033506 0.021261 0.112688 -0.135755 -0.000000 0.000000 0.000000 0.000000 0.000000 0.000000 0.000000 
-6.749474 16.671466 -1.337123 3.733123 81.673653 7.904347 -9.991245 1.900484 1.257735 -19.801279 6.758017 -29.436985 -2.340602 1.202595 33.460827 2.086186 8.944054 -16.757566 -1.668801 -0.000000 -3.868400 11.141604 -2.133307 -2.640133 -5.327747 -21.079265 -13.470857 -0.825031 -3.526834 55.289563 -1.857349 -9.433974 8.995958 -2.370300 0.000001 -52.009100 -1.698247 -0.445110 -0.453856 -0.742021 -0.340612 -2.586761 -4.855094 -0.407852 2.381905 10.623356 -12.001306 -11.481422 -1.612369 -0.071457 -1.031193 0.000000 0.000000 0.000000 -2.567979 21.605220 2.137895 -81.992058 18.094373 -4.182957 -4.191201 -16.749390 -0.019981 -7.600284 7.321642 -0.487926 -0.071897 -0.079049 -0.000000 0.000000 0.000000 0.000000 0.000000 0.000000 0.000000 10.414521 -6.583880 1.024724 53.414512 4.349319 -6.550231 3.044885 35.071032 0.012228 0.013813 5.199140 -0.004024 0.117502 -0.135872 -0.000000 0.000000 0.000000 0.000000 0.000000 0.000000 0.000000 
-6.520123 16.637580 -1.329069 5.257582 81.475555 9.571637 -9.959757 1.910854 1.156894 -20.097600 6.587899 -29.095602 -2.316331 1.267625 34.634942 2.244983 9.525640 -18.042182 -2.015100 0.000000 -3.200100 11.155863 -1.964616 -2.469354 -4.947233 -19.968717 -15.534308 -0.748086 -3.628984 56.342616 -1.760939 -9.171558 5.064884 -1.820500 0.000000 -50.136700 -1.929474 -0.582854 -0.498434 -0.796194 -0.468641 -2.600470 -4.930263 -0.535749 2.359931 10.715393 -12.099899 -11.547228 -1.652912 -0.073665 -1.049938 0.000000 0.000000 0.000000 -2.537574 21.496174 2.093692 -81.187484 17.181379 -3.484027 -4.162223 -17.366408 -0.018583 -7.169414 6.998864 -0.439279 -0.074479 -0.073868 -0.000000 0.000000 0.000000 0.000000 0.000000 0.000000 0.000000 10.640644 -6.721929 0.989417 54.700130 3.462929 -7.539136 3.063750 34.465552 0.011635 -0.631307 5.409433 -0.035710 0.122577 -0.136047 -0.000000 0.000000 0.000000 0.000000 0.000000 0.000000 0.000000 
-6.292226 16.611253 -1.321494 6.632412 81.289695 11.098275 -9.917949 1.917164 1.055087 -20.377657 6.396971 -28.560630 -2.304267 1.303802 35.484274 2.407670 10.100674 -19.322378 -2.387500 -0.000001 -2.910100 11.163426 -1.782832 -2.272512 -4.542555 -18.736418 -17.535748 -0.645229 -3.704712 57.067715 -1.693910 -8.937305 1.337709 -1.309600 -0.000000 -48.228100 -2.119937 -0.717384 -0.550720 -0.843244 -0.596195 -2.614974 -5.007730 -0.662849 2.338595 10.789380 -12.193073 -11.607433 -1.697329 -0.076302 -1.067117 0.000000 0.000000 0.000000 -2.491623 21.352150 2.047023 -80.311353 16.209677 -2.943676 -4.134263 -17.962245 -0.017121 -6.629093 6.666288 -0.386129 -0.077913 -0.068189 -0.000000 0.000000 0.000000 0.000000 0.000000 0.000000 0.000000 10.861665 -6.863876 0.955827 56.050447 2.530688 -8.635987 3.081504 33.766303 0.011010 -1.324696 5.649260 -0.072601 0.127481 -0.136004 -0.000000 0.000000 0.000000 0.000000 0.000000 0.000000 0.000000 
-6.065033 16.592668 -1.314888 7.788997 81.120202 12.400745 -9.870458 1.922668 0.951847 -20.621876 6.213136 -27.822708 -2.304679 1.312720 36.000285 2.562324 10.619279 -20.543543 -2.763600 -0.000000 -2.926100 11.161189 -1.588368 -2.058746 -4.123936 -17.442623 -19.454271 -0.525495 -3.753986 57.484931 -1.669011 -8.803356 -2.068907 -0.853700 -0.000001 -46.336400 -2.256129 -0.848532 -0.602622 -0.880028 -0.723526 -2.627079 -5.085277 -0.789095 2.324317 10.847673 -12.303166 -11.666435 -1.742858 -0.079050 -1.083917 0.000000 0.000000 0.000000 -2.431767 21.193419 1.996528 -79.372292 15.184210 -2.556608 -4.109611 -18.545211 -0.015674 -6.024869 6.328207 -0.332175 -0.082052 -0.062119 -0.000000 0.000000 0.000000 0.000000 0.000000 0.000000 0.000000 11.079650 -7.035794 0.924013 57.437069 1.590565 -9.784516 3.099937 32.954450 0.010384 -2.051208 5.910202 -0.114497 0.132163 -0.135465 -0.000000 0.000000 0.000000 0.000000 0.000000 0.000000 0.000000 
-5.837732 16.581805 -1.309681 8.672683 80.973953 13.413027 -9.822753 1.931090 0.848790 -20.813219 6.065540 -26.886850 -2.317079 1.296506 36.185529 2.698377 11.041924 -21.656427 -3.118200 -0.000000 -3.157700 11.145071 -1.384600 -1.837726 -3.688211 -16.154942 -21.281026 -0.397955 -3.778210 57.622228 -1.692543 -8.819704 -5.090875 -0.450100 0.000000 -44.522800 -2.324702 -0.976072 -0.649939 -0.903663 -0.851052 -2.636549 -5.161653 -0.914815 2.315236 10.886969 -12.422456 -11.719181 -1.788999 -0.081949 -1.098804 0.000000 0.000000 0.000000 -2.363581 21.016006 1.942937 -78.380056 14.138506 -2.328375 -4.089815 -19.147692 -0.014311 -5.406945 5.988696 -0.281218 -0.086705 -0.055779 -0.000000 0.000000 0.000000 0.000000 0.000000 0.000000 0.000000 11.287774 -7.230278 0.894848 58.845983 0.631527 -10.977460 3.120432 32.034660 0.009800 -2.778129 6.175442 -0.159799 0.136435 -0.134242 -0.000000 0.000000 0.000000 0.000000 0.000000 0.000000 0.000000 
